<svg width="230" height="118" viewBox="0 0 230 118" fill="none" xmlns="http://www.w3.org/2000/svg">
<rect x="8.5" y="8" width="213" height="102" stroke="#111111" stroke-width="2"/>
<path d="M59.1 42.2H63.996V63.368C63.996 70.232 66.444 73.4 72.972 73.4C79.644 73.4 82.092 69.704 82.092 62.84V42.2H86.988V62.456C86.988 72.632 83.1 77.624 72.972 77.624C63.324 77.624 59.1 73.688 59.1 62.84V42.2ZM99.6334 42.2V77H94.7374V42.2H99.6334ZM121.109 65.912H105.845V61.784H121.109V65.912ZM126.69 42.2H131.058V62.792L141.474 51.176H146.85L137.01 61.88L148.194 77H142.866L134.082 65.096L131.058 68.36V77H126.69V42.2ZM150.925 51.176H155.293V77H150.925V51.176ZM150.925 42.2H155.293V47.48H150.925V42.2ZM163.47 51.176V44.696H167.838V51.176H172.734V54.68H167.838V69.992C167.838 72.68 168.03 73.352 170.526 73.352H172.734V77H169.566C164.622 77 163.47 75.896 163.47 70.52V54.68H159.39V51.176H163.47Z" fill="#111111"/>
<rect x="214.5" y="1" width="14" height="14" fill="white" stroke="black" stroke-width="2"/>
<rect x="214.5" y="103" width="14" height="14" fill="white" stroke="black" stroke-width="2"/>
<rect x="1.5" y="1" width="14" height="14" fill="white" stroke="black" stroke-width="2"/>
<rect x="1.5" y="103" width="14" height="14" fill="white" stroke="black" stroke-width="2"/>
</svg>
